# 3ds Max Wavefront OBJ Exporter v0.99 - (c)2007 guruware
# File Created: 09.09.2021 21:10:53

mtllib dom.mtl

#
# object dom
#

v  -50.0000 0.0000 50.0000
v  -50.0000 0.0000 -50.0000
v  50.0000 0.0000 -50.0000
v  50.0000 0.0000 50.0000
v  -50.0000 100.0000 50.0000
v  50.0000 100.0000 50.0000
v  50.0000 100.0000 -50.0000
v  -50.0000 100.0000 -50.0000
# 8 vertices

vn -0.5774 -0.5774 0.5774
vn -0.5774 -0.5774 -0.5774
vn 0.5774 -0.5774 -0.5774
vn 0.5774 -0.5774 0.5774
vn -0.5774 0.5774 0.5774
vn 0.5774 0.5774 0.5774
vn 0.5774 0.5774 -0.5774
vn -0.5774 0.5774 -0.5774
# 8 vertex normals

vt 0.2502 0.2502 -25.0000
vt 0.2502 0.0005 25.0000
vt 0.5000 0.0005 25.0000
vt 0.5000 0.2502 -25.0000
vt 0.2503 0.5000 25.0000
vt 0.5000 0.5000 25.0000
vt 0.5000 0.7497 25.0000
vt 0.2503 0.7497 25.0000
vt 0.7497 0.2502 25.0000
vt 0.7497 0.5000 25.0000
vt 0.5000 0.9995 25.0000
vt 0.2503 0.9995 25.0000
vt 0.0005 0.2502 25.0000
vt 0.0005 0.5000 25.0000
# 14 texture coords

o dom
g dom
usemtl Material__0
s 2
f 1/1/1 2/2/2 3/3/3 4/4/4 
s 4
f 5/5/5 6/6/6 7/7/7 8/8/8 
s 8
f 1/1/1 4/4/4 6/6/6 5/5/5 
s 16
f 4/4/4 3/9/3 7/10/7 6/6/6 
s 32
f 3/11/3 2/12/2 8/8/8 7/7/7 
s 64
f 2/13/2 1/1/1 5/5/5 8/14/8 
# 6 polygons

