# 3ds Max Wavefront OBJ Exporter v0.99 - (c)2007 guruware
# File Created: 09.09.2021 21:13:55

mtllib punkt.mtl

#
# object punktowe
#

v  -13.8889 -13.8889 13.8889
v  -18.7500 -18.7500 -0.0000
v  0.0000 -25.0000 -0.0000
v  0.0000 -18.7500 18.7500
v  -13.8889 -13.8889 -13.8889
v  0.0000 -18.7500 -18.7500
v  13.8889 -13.8889 -13.8889
v  18.7500 -18.7500 -0.0000
v  13.8889 -13.8889 13.8889
v  -13.8889 13.8889 13.8889
v  0.0000 18.7500 18.7500
v  0.0000 25.0000 -0.0000
v  -18.7500 18.7500 -0.0000
v  13.8889 13.8889 13.8889
v  18.7500 18.7500 -0.0000
v  13.8889 13.8889 -13.8889
v  0.0000 18.7500 -18.7500
v  -13.8889 13.8889 -13.8889
v  0.0000 0.0000 25.0000
v  -18.7500 0.0000 18.7500
v  18.7500 0.0000 18.7500
v  25.0000 0.0000 -0.0000
v  18.7500 0.0000 -18.7500
v  0.0000 0.0000 -25.0000
v  -18.7500 0.0000 -18.7500
v  -25.0000 0.0000 -0.0000
# 26 vertices

vn -0.5774 -0.5774 0.5774
vn -0.7071 -0.7071 -0.0000
vn 0.0000 -1.0000 -0.0000
vn 0.0000 -0.7071 0.7071
vn -0.5774 -0.5774 -0.5774
vn 0.0000 -0.7071 -0.7071
vn 0.5774 -0.5774 -0.5774
vn 0.7071 -0.7071 -0.0000
vn 0.5774 -0.5774 0.5774
vn -0.5774 0.5774 0.5774
vn 0.0000 0.7071 0.7071
vn 0.0000 1.0000 -0.0000
vn -0.7071 0.7071 -0.0000
vn 0.5774 0.5774 0.5774
vn 0.7071 0.7071 -0.0000
vn 0.5774 0.5774 -0.5774
vn 0.0000 0.7071 -0.7071
vn -0.5774 0.5774 -0.5774
vn 0.0000 0.0000 1.0000
vn -0.7071 0.0000 0.7071
vn 0.7071 0.0000 0.7071
vn 1.0000 0.0000 -0.0000
vn 0.7071 0.0000 -0.7071
vn 0.0000 0.0000 -1.0000
vn -0.7071 0.0000 -0.7071
vn -1.0000 0.0000 -0.0000
# 26 vertex normals

vt 0.6659 0.3423 0.0000
vt 0.6659 0.5081 0.0000
vt 0.5000 0.5081 0.0000
vt 0.5000 0.3423 0.0000
vt 0.6659 0.6740 0.0000
vt 0.5000 0.6740 0.0000
vt 0.3341 0.6740 0.0000
vt 0.3341 0.5081 0.0000
vt 0.3341 0.3423 0.0000
vt 0.0005 0.3341 0.0000
vt 0.1664 0.3341 0.0000
vt 0.1664 0.5000 0.0000
vt 0.0005 0.5000 0.0000
vt 0.3323 0.3341 0.0000
vt 0.3323 0.5000 0.0000
vt 0.3323 0.6659 0.0000
vt 0.1664 0.6659 0.0000
vt 0.0005 0.6659 0.0000
vt 0.6677 0.0005 0.0000
vt 0.8336 0.0005 0.0000
vt 0.8336 0.1664 0.0000
vt 0.6677 0.1664 0.0000
vt 0.9995 0.0005 0.0000
vt 0.9995 0.1664 0.0000
vt 0.9995 0.3323 0.0000
vt 0.8336 0.3323 0.0000
vt 0.6677 0.3323 0.0000
vt 0.3341 0.0005 0.0000
vt 0.5000 0.0005 0.0000
vt 0.5000 0.1664 0.0000
vt 0.3341 0.1664 0.0000
vt 0.6659 0.0005 0.0000
vt 0.6659 0.1664 0.0000
vt 0.6659 0.3323 0.0000
vt 0.5000 0.3323 0.0000
vt 0.3341 0.3323 0.0000
vt 0.0005 0.6677 0.0000
vt 0.1664 0.6677 0.0000
vt 0.1664 0.8336 0.0000
vt 0.0005 0.8336 0.0000
vt 0.3323 0.6677 0.0000
vt 0.3323 0.8336 0.0000
vt 0.3323 0.9995 0.0000
vt 0.1664 0.9995 0.0000
vt 0.0005 0.9995 0.0000
vt 0.0012 0.0005 0.0000
vt 0.1672 0.0005 0.0000
vt 0.1672 0.1665 0.0000
vt 0.0012 0.1665 0.0000
vt 0.3325 0.0005 0.0000
vt 0.3325 0.1665 0.0000
vt 0.3325 0.3325 0.0000
vt 0.1665 0.3325 0.0000
vt 0.0005 0.3325 0.0000
# 54 texture coords

o punktowe
g punktowe
usemtl Material__4
s 1
f 1/1/1 2/2/2 3/3/3 4/4/4 
f 2/2/2 5/5/5 6/6/6 3/3/3 
f 7/7/7 8/8/8 3/3/3 6/6/6 
f 8/8/8 9/9/9 4/4/4 3/3/3 
f 10/10/10 11/11/11 12/12/12 13/13/13 
f 11/11/11 14/14/14 15/15/15 12/12/12 
f 16/16/16 17/17/17 12/12/12 15/15/15 
f 17/17/17 18/18/18 13/13/13 12/12/12 
f 1/19/1 4/20/4 19/21/19 20/22/20 
f 4/20/4 9/23/9 21/24/21 19/21/19 
f 14/25/14 11/26/11 19/21/19 21/24/21 
f 11/26/11 10/27/10 20/22/20 19/21/19 
f 9/28/9 8/29/8 22/30/22 21/31/21 
f 8/29/8 7/32/7 23/33/23 22/30/22 
f 16/34/16 15/35/15 22/30/22 23/33/23 
f 15/35/15 14/36/14 21/31/21 22/30/22 
f 7/37/7 6/38/6 24/39/24 23/40/23 
f 6/38/6 5/41/5 25/42/25 24/39/24 
f 18/43/18 17/44/17 24/39/24 25/42/25 
f 17/44/17 16/45/16 23/40/23 24/39/24 
f 5/46/5 2/47/2 26/48/26 25/49/25 
f 2/47/2 1/50/1 20/51/20 26/48/26 
f 10/52/10 13/53/13 26/48/26 20/51/20 
f 13/53/13 18/54/18 25/49/25 26/48/26 
# 24 polygons

