# Blender v2.93.6 OBJ File: ''
# www.blender.org
mtllib trawa.mtl
o trawa
v -150.000000 -0.000024 150.000000
v -150.000000 0.000024 -150.000000
v 150.000000 0.000024 -150.000000
v 150.000000 -0.000024 150.000000
v -150.000000 2.999975 150.000000
v 150.000000 2.999975 150.000000
v 150.000000 3.000025 -150.000000
v -150.000000 3.000025 -150.000000
vt 0.496200 0.994000
vt 0.000500 0.994000
vt 0.000500 0.498300
vt 0.496200 0.498300
vt 0.000500 0.000500
vt 0.496200 0.000500
vt 0.496200 0.496200
vt 0.000500 0.496200
vt 0.281300 0.473400
vt 0.277500 0.040500
vt 0.285600 0.040500
vt 0.289400 0.473400
vt 0.211300 0.038900
vt 0.212400 0.471800
vt 0.204400 0.471800
vt 0.203200 0.038900
vt 0.251000 0.038900
vt 0.255300 0.471800
vt 0.247300 0.471800
vt 0.242900 0.038900
vt 0.231000 0.045400
vt 0.234100 0.478300
vt 0.226000 0.478300
vt 0.222900 0.045400
vn -0.5774 -0.5774 0.5773
vn -0.5773 -0.5774 -0.5774
vn 0.5774 -0.5774 -0.5773
vn 0.5773 -0.5774 0.5774
vn -0.5773 0.5774 0.5774
vn 0.5774 0.5774 0.5773
vn 0.5773 0.5774 -0.5774
vn -0.5774 0.5774 -0.5773
vn -0.5773 -0.5774 0.5774
vn 0.5774 -0.5773 0.5774
vn 0.5773 0.5774 0.5774
vn -0.5774 0.5773 0.5774
vn 0.5774 -0.5774 0.5773
vn 0.5774 -0.5773 -0.5774
vn 0.5774 0.5774 -0.5773
vn 0.5774 0.5773 0.5774
vn 0.5773 -0.5774 -0.5774
vn -0.5774 -0.5773 -0.5774
vn -0.5773 0.5774 -0.5774
vn 0.5774 0.5773 -0.5774
vn -0.5774 -0.5774 -0.5773
vn -0.5774 -0.5773 0.5774
vn -0.5774 0.5774 0.5773
vn -0.5774 0.5773 -0.5774
usemtl Material__5
s 1
f 1/1/1 2/2/2 3/3/3 4/4/4
f 5/5/5 6/6/6 7/7/7 8/8/8
f 1/9/9 4/10/10 6/11/11 5/12/12
f 4/13/13 3/14/14 7/15/15 6/16/16
f 3/17/17 2/18/18 8/19/19 7/20/20
f 2/21/21 1/22/22 5/23/23 8/24/24
