# Blender v2.93.6 OBJ File: 'KoparaOpada.blend'
# www.blender.org
mtllib caterpilar.mtl
o Catepillar_Cube.001
v -22.214331 -4.292310 47.433563
v -22.214331 22.214331 47.433563
v -22.214331 -4.292310 -47.433563
v 22.214331 -4.292310 47.433563
v 22.214331 22.214331 47.433563
v 22.214331 -4.292310 -47.433563
v -22.214331 -4.292310 5.468733
v -20.774441 25.047228 8.543284
v 22.214331 -4.292310 5.468733
v 20.774441 25.047228 8.543284
v 20.774441 25.047228 38.810574
v -20.774441 25.047228 38.810574
v -22.214331 22.214331 41.885128
v -22.214331 22.214331 5.468733
v 22.214331 22.214331 5.468733
v 22.214331 22.214331 41.885128
v -20.774441 40.604145 38.810574
v -20.774441 40.604145 8.543284
v 20.774441 40.604145 8.543284
v 20.774441 40.604145 38.810574
v -20.774441 22.214331 38.810574
v -20.774441 22.214331 8.543284
v 20.774441 22.214331 8.543284
v 20.774441 22.214331 38.810574
v -20.774441 43.437042 38.810574
v -20.774441 43.437042 8.543284
v 20.774441 43.437042 8.543284
v 20.774441 43.437042 38.810574
v 20.209497 25.047228 9.749589
v 20.209497 40.604145 9.749589
v 20.209497 40.604145 37.604271
v 20.209497 25.047228 37.604271
v -20.209497 25.047228 37.604271
v -20.209497 40.604145 37.604271
v -20.209497 40.604145 9.749589
v -20.209497 25.047228 9.749589
v -22.214331 22.214331 -25.166014
v -22.214331 11.785877 -47.433563
v 22.214331 11.785877 -47.433563
v 22.214331 22.214331 -25.166014
v -19.675907 0.659608 48.545006
v -19.675907 19.794012 48.545006
v -21.149376 -0.059278 46.840416
v -21.149376 20.512899 46.840416
v -13.461649 20.512899 46.840416
v -13.461649 -0.059278 46.840416
v -14.935118 19.794012 48.545006
v -14.935118 0.659608 48.545006
v -21.149376 -0.059278 48.545006
v -21.149376 20.512899 48.545006
v -13.461649 -0.059278 48.545006
v -13.461649 20.512899 48.545006
v -19.675907 0.659608 47.609497
v -19.675907 19.794012 47.609497
v -14.935118 0.659608 47.609497
v -14.935118 19.794012 47.609497
v -23.493395 26.028996 44.200829
v -23.493395 22.186995 44.200829
v -27.951756 26.028996 44.200829
v -27.951756 22.186995 44.200829
v -20.465330 21.038504 46.345451
v -20.465330 23.259935 46.345451
v -20.465330 21.038504 44.124016
v -20.465330 23.259935 44.124016
v -22.686764 21.038504 46.345451
v -22.686764 23.259935 46.345451
v -22.686764 21.038504 44.124016
v -22.686764 23.259935 44.124016
v -20.465330 24.956053 46.345451
v -20.465330 24.956053 44.124016
v -22.686764 24.956053 44.124016
v -22.686764 24.956053 46.345451
v -23.493395 22.186995 44.124016
v -24.759409 23.259935 46.345451
v -23.493395 26.028996 44.124016
v -24.759409 24.956053 46.345451
v -27.951756 22.186995 44.124016
v -26.685741 23.259935 46.345451
v -27.951756 26.028996 44.124016
v -26.685741 24.956053 46.345451
v -23.143900 26.378487 44.124016
v -23.143900 21.837502 44.124016
v -28.301252 26.378487 44.124016
v -28.301252 21.837502 44.124016
v 22.214331 5.754676 43.504196
v 22.214331 8.770446 41.885128
v 22.214331 8.745620 41.905502
v -22.214331 8.745620 41.905502
v -22.214331 8.770446 41.885128
v 22.214331 -0.865745 44.821079
v 22.214331 -4.292310 44.473042
v 22.214331 -4.240809 44.488663
v 22.214331 2.509315 44.488663
v 22.214331 11.367199 39.754028
v -22.214331 11.367199 39.754028
v -22.214331 -4.292310 44.473042
v 22.214331 13.518675 37.132446
v -22.214331 13.518675 37.132446
v -22.214331 15.117368 34.141506
v 22.214331 15.117368 34.141506
v -22.214331 16.434252 27.521080
v -22.214331 15.117367 20.900654
v -22.214331 13.518679 17.909718
v -22.214331 16.101837 24.146015
v -22.214331 16.101837 30.896143
v 22.214331 16.101837 30.896143
v -22.214331 8.745620 13.136657
v -22.214331 11.367202 15.288135
v -22.214331 -0.865747 10.221081
v -22.214331 -4.240809 10.553495
v -22.214331 -4.292310 10.569118
v -22.214331 2.509314 10.553495
v 22.214331 16.434252 27.521080
v -22.214331 5.754676 11.537964
v 22.214331 16.101837 24.146015
v -22.214331 -0.865745 44.821079
v -22.214331 -4.240809 44.488663
v -22.214331 2.509315 44.488663
v -22.214331 5.754676 43.504196
v 22.214331 -4.292310 10.569118
v 22.214331 15.117367 20.900654
v 22.214331 13.518679 17.909718
v 22.214331 11.367202 15.288135
v 22.214331 8.745620 13.136657
v 22.214331 2.509314 10.553495
v 22.214331 5.754676 11.537964
v 22.214331 -0.865747 10.221081
v 22.214331 -4.240809 10.553495
v 22.214331 15.117367 -31.366329
v 22.214331 13.518679 -34.357265
v 22.214331 8.745620 -39.130325
v 22.214331 5.754676 -40.729019
v 22.214331 11.367202 -36.978848
v 22.214331 -0.865745 -7.445904
v 22.214331 -4.292310 -7.793941
v 22.214331 -4.240809 -7.778318
v 22.214331 2.509315 -7.778318
v 22.214331 8.745620 -10.361481
v 22.214331 13.518675 -15.134535
v 22.214331 5.754676 -8.762789
v 22.214331 16.101837 -21.370840
v 22.214331 16.101837 -28.120968
v 22.214331 16.434252 -24.745903
v 22.214331 -0.865747 -42.045902
v 22.214331 2.509314 -41.713486
v 22.214331 -4.240809 -41.713486
v 22.214331 -4.292310 -41.697865
v 22.214331 15.117368 -18.125477
v 22.214331 11.367199 -12.512956
v -22.214331 15.117367 -31.366329
v -22.214331 13.518679 -34.357265
v -22.214331 8.745620 -39.130325
v -22.214331 5.754676 -40.729019
v -22.214331 11.367202 -36.978848
v -22.214331 -0.865745 -7.445904
v -22.214331 -4.292310 -7.793941
v -22.214331 -4.240809 -7.778318
v -22.214331 2.509315 -7.778318
v -22.214331 8.745620 -10.361481
v -22.214331 13.518675 -15.134535
v -22.214331 5.754676 -8.762789
v -22.214331 16.101837 -21.370840
v -22.214331 16.101837 -28.120968
v -22.214331 16.434252 -24.745903
v -22.214331 -0.865747 -42.045902
v -22.214331 2.509314 -41.713486
v -22.214331 -4.240809 -41.713486
v -22.214331 -4.292310 -41.697865
v -22.214331 15.117368 -18.125477
v -22.214331 11.367199 -12.512956
vt 0.867196 0.000181
vt 0.965369 0.000000
vt 0.965369 0.270494
vt 0.867196 0.270676
vt 0.705490 0.034829
vt 0.705175 0.034924
vt 0.705175 0.000057
vt 0.803452 0.000000
vt 0.867196 0.135326
vt 0.867196 0.321552
vt 0.705175 0.321648
vt 0.705175 0.241025
vt 0.705490 0.241119
vt 0.726120 0.243128
vt 0.746750 0.241095
vt 0.766587 0.235099
vt 0.784869 0.225370
vt 0.800893 0.212282
vt 0.814044 0.196338
vt 0.823816 0.178150
vt 0.829834 0.158419
vt 0.831865 0.137901
vt 0.829833 0.117385
vt 0.823816 0.097660
vt 0.814044 0.079484
vt 0.800893 0.063555
vt 0.784869 0.050486
vt 0.766587 0.040778
vt 0.746750 0.034805
vt 0.726120 0.032796
vt 0.785021 0.542975
vt 0.867196 0.542927
vt 0.867196 0.576656
vt 0.705175 0.576748
vt 0.705175 0.558753
vt 0.705490 0.558847
vt 0.726120 0.560856
vt 0.746750 0.558824
vt 0.766587 0.552828
vt 0.784869 0.543099
vt 0.728169 0.577456
vt 0.890084 0.577642
vt 0.890084 0.848217
vt 0.728169 0.848030
vt 0.543155 0.578033
vt 0.271577 0.578033
vt 0.271577 0.559995
vt 0.543155 0.559995
vt 0.271577 0.033806
vt 0.000000 0.033806
vt 0.000000 0.000000
vt 0.271577 0.000000
vt 0.543155 0.336149
vt 0.543155 0.255424
vt 0.705176 0.255486
vt 0.705176 0.441948
vt 0.641432 0.577457
vt 0.543155 0.577419
vt 0.543155 0.542508
vt 0.543470 0.542604
vt 0.564100 0.544635
vt 0.584730 0.542620
vt 0.604567 0.536635
vt 0.622849 0.526912
vt 0.638873 0.513823
vt 0.652024 0.497871
vt 0.661796 0.479670
vt 0.667814 0.459919
vt 0.669845 0.439377
vt 0.667814 0.418834
vt 0.661796 0.399078
vt 0.652024 0.380870
vt 0.638873 0.364908
vt 0.622849 0.351807
vt 0.604567 0.342069
vt 0.584730 0.336070
vt 0.564100 0.334039
vt 0.543470 0.336054
vt 0.543155 0.322338
vt 0.271577 0.322338
vt 0.271577 0.241528
vt 0.543155 0.241528
vt 0.271577 0.034948
vt 0.271577 0.000000
vt 0.543155 0.000000
vt 0.543155 0.034948
vt 0.705176 0.033833
vt 0.543155 0.224380
vt 0.543470 0.224476
vt 0.564100 0.226507
vt 0.584730 0.224491
vt 0.604567 0.218506
vt 0.622849 0.208783
vt 0.638873 0.195694
vt 0.652024 0.179742
vt 0.661796 0.161541
vt 0.667813 0.141790
vt 0.669845 0.121248
vt 0.667813 0.100704
vt 0.661796 0.080949
vt 0.652024 0.062740
vt 0.638873 0.046779
vt 0.623001 0.033802
vt 0.543470 0.017925
vt 0.543155 0.018020
vt 0.543155 0.000000
vt 0.705176 0.000061
vt 0.622849 0.033678
vt 0.604567 0.023940
vt 0.584730 0.017940
vt 0.564100 0.015909
vt 0.271577 0.578035
vt 0.456589 0.578035
vt 0.449215 0.581478
vt 0.278951 0.581478
vt 0.271577 0.353415
vt 0.543155 0.353415
vt 0.800893 0.530011
vt 0.814044 0.514067
vt 0.823816 0.495879
vt 0.829833 0.476147
vt 0.831865 0.455629
vt 0.829834 0.435113
vt 0.823816 0.415388
vt 0.814044 0.397212
vt 0.800893 0.381283
vt 0.784869 0.368214
vt 0.766587 0.358506
vt 0.746750 0.352533
vt 0.726120 0.350525
vt 0.705490 0.352558
vt 0.705175 0.352653
vt 0.008802 0.052540
vt 0.008802 0.236958
vt 0.000000 0.255692
vt 0.262775 0.236958
vt 0.271577 0.255692
vt 0.262775 0.052540
vt 0.000000 0.831499
vt 0.000000 0.578339
vt 0.185012 0.578339
vt 0.185012 0.831499
vt 0.456589 0.831196
vt 0.271577 0.831196
vt 0.278951 0.827755
vt 0.449215 0.827755
vt 0.543155 0.577456
vt 0.728168 0.577456
vt 0.720794 0.580898
vt 0.550529 0.580898
vt 0.728168 0.830616
vt 0.543155 0.830616
vt 0.550529 0.827175
vt 0.720794 0.827175
vt 0.982683 0.000008
vt 0.982683 0.184231
vt 0.965368 0.184227
vt 0.965368 0.000000
vt 0.219607 0.703638
vt 0.219607 0.956600
vt 0.202310 0.956633
vt 0.202310 0.703671
vt 0.996856 0.270677
vt 0.996856 0.454670
vt 0.979541 0.454679
vt 0.979541 0.270687
vt 0.266577 0.578360
vt 0.266577 0.831394
vt 0.249272 0.831375
vt 0.249272 0.578339
vt 0.962224 0.454903
vt 0.962224 0.270676
vt 0.979541 0.270683
vt 0.979541 0.454906
vt 0.185010 0.956633
vt 0.185010 0.703671
vt 0.202308 0.703638
vt 0.202308 0.956600
vt 0.982683 0.184003
vt 0.982683 0.000010
vt 1.000000 0.000000
vt 1.000000 0.183993
vt 0.231966 0.831375
vt 0.231966 0.578339
vt 0.249272 0.578360
vt 0.249272 0.831396
vt 0.000000 0.442352
vt 0.271577 0.442352
vt 0.271577 0.578339
vt 0.000000 0.578339
vt 1.000000 0.617264
vt 0.968750 0.617264
vt 0.968750 0.889565
vt 1.000000 0.889565
vt 0.968254 0.617264
vt 0.968254 0.889565
vt 0.968750 0.889565
vt 0.531746 0.617264
vt 0.531250 0.617264
vt 0.531250 0.889565
vt 0.531746 0.889565
vt 0.500000 0.617264
vt 0.500000 0.889565
vt 0.468750 0.617264
vt 0.468750 0.889565
vt 0.437500 0.617264
vt 0.437500 0.889565
vt 0.406250 0.617264
vt 0.406250 0.889565
vt 0.405954 0.889565
vt 0.405954 0.617264
vt 0.375000 0.617264
vt 0.375000 0.889565
vt 0.343750 0.617264
vt 0.343750 0.889565
vt 0.312500 0.617264
vt 0.312500 0.889565
vt 0.281250 0.617264
vt 0.281250 0.889565
vt 0.250000 0.617264
vt 0.250000 0.889565
vt 0.218750 0.617264
vt 0.218750 0.889565
vt 0.187500 0.617264
vt 0.187500 0.889565
vt 0.156250 0.617264
vt 0.156250 0.889565
vt 0.125000 0.617264
vt 0.125000 0.889565
vt 0.093750 0.617264
vt 0.093750 0.889565
vt 0.062500 0.617264
vt 0.062500 0.889565
vt 0.031250 0.617264
vt 0.031250 0.889565
vt 0.000000 0.617264
vt 0.000000 0.889565
vt 0.968750 0.889565
vt 1.000000 0.889565
vt 1.000000 0.617264
vt 0.968750 0.617264
vt 0.968254 0.889565
vt 0.968254 0.617264
vt 0.531250 0.617264
vt 0.531250 0.889565
vt 0.531746 0.889565
vt 0.531746 0.617264
vt 0.500000 0.617264
vt 0.500000 0.889565
vt 0.468750 0.617264
vt 0.468750 0.889565
vt 0.437500 0.617264
vt 0.437500 0.889565
vt 0.468750 0.889565
vt 0.406250 0.617264
vt 0.406250 0.889565
vt 0.375000 0.617264
vt 0.375000 0.889565
vt 0.343750 0.617264
vt 0.343750 0.889565
vt 0.312500 0.617264
vt 0.312500 0.889565
vt 0.281250 0.617264
vt 0.281250 0.889565
vt 0.250000 0.617264
vt 0.250000 0.889565
vt 0.218750 0.617264
vt 0.218750 0.889565
vt 0.187500 0.617264
vt 0.187500 0.889565
vt 0.156250 0.617264
vt 0.156250 0.889565
vt 0.125000 0.617264
vt 0.125000 0.889565
vt 0.093750 0.889565
vt 0.093750 0.617264
vt 0.062500 0.889565
vt 0.062500 0.617264
vt 0.031250 0.617264
vt 0.031250 0.889565
vt 0.000000 0.889565
vt 0.000000 0.617264
vt 0.219605 0.954332
vt 0.219605 0.828989
vt 0.230015 0.828985
vt 0.230015 0.954329
vt 0.231967 0.578426
vt 0.231967 0.703638
vt 0.185012 0.703551
vt 0.185012 0.578339
vt 0.176055 0.860388
vt 0.176055 0.831501
vt 0.181772 0.831501
vt 0.181772 0.860388
vt 0.231966 0.831396
vt 0.242387 0.831396
vt 0.242387 0.878239
vt 0.231966 0.878239
vt 0.242387 0.831396
vt 0.252808 0.831396
vt 0.252808 0.878239
vt 0.242387 0.878239
vt 0.281973 0.956540
vt 0.281973 0.831196
vt 0.292367 0.831202
vt 0.292367 0.956546
vt 0.494556 0.698931
vt 0.494556 0.582422
vt 0.503558 0.578035
vt 0.503558 0.703299
vt 0.465591 0.698965
vt 0.456589 0.703352
vt 0.465591 0.582457
vt 0.456589 0.578091
vt 0.532522 0.578035
vt 0.532522 0.694544
vt 0.503558 0.694576
vt 0.503558 0.578070
vt 0.491242 0.945251
vt 0.491242 0.828667
vt 0.496956 0.828665
vt 0.496956 0.945250
vt 0.774558 0.848219
vt 0.774558 0.877106
vt 0.768841 0.877106
vt 0.768841 0.848219
vt 0.720767 0.947201
vt 0.720767 0.830618
vt 0.726473 0.830621
vt 0.726473 0.947205
vt 0.119661 0.855375
vt 0.133224 0.855370
vt 0.133224 0.841835
vt 0.119661 0.841841
vt 0.655548 0.830618
vt 0.655548 0.844147
vt 0.669118 0.844162
vt 0.669118 0.830633
vt 0.768841 0.848227
vt 0.755294 0.848219
vt 0.755294 0.861753
vt 0.768841 0.861761
vt 0.292369 0.855587
vt 0.292369 0.869112
vt 0.305934 0.869087
vt 0.305934 0.855562
vt 0.728168 0.861753
vt 0.741746 0.861753
vt 0.741746 0.848219
vt 0.728168 0.848219
vt 0.133224 0.831501
vt 0.119661 0.831507
vt 0.880775 0.551153
vt 0.867197 0.551153
vt 0.867197 0.564688
vt 0.880775 0.564688
vt 0.316289 0.869068
vt 0.316289 0.855543
vt 0.679478 0.844173
vt 0.679478 0.830647
vt 0.316289 0.842924
vt 0.305934 0.842943
vt 0.316289 0.831196
vt 0.305934 0.831215
vt 0.880775 0.548367
vt 0.867197 0.538525
vt 0.266424 0.865606
vt 0.266424 0.852978
vt 0.252804 0.862820
vt 0.252846 0.865606
vt 0.660429 0.846937
vt 0.688167 0.846968
vt 0.034420 0.840244
vt 0.034420 0.850578
vt 0.048640 0.859169
vt 0.048640 0.831501
vt 0.266424 0.841240
vt 0.252804 0.831396
vt 0.271024 0.578339
vt 0.270554 0.578339
vt 0.270554 0.605503
vt 0.271024 0.605503
vt 0.880775 0.516943
vt 0.867197 0.526787
vt 0.686032 0.849094
vt 0.662563 0.849068
vt 0.662563 0.876219
vt 0.660429 0.878345
vt 0.688167 0.878378
vt 0.686032 0.876245
vt 0.539171 0.598778
vt 0.538704 0.598778
vt 0.538704 0.622187
vt 0.539171 0.622187
vt 0.270083 0.605503
vt 0.270554 0.605503
vt 0.270554 0.578339
vt 0.270083 0.578339
vt 0.538704 0.598778
vt 0.538233 0.598778
vt 0.538233 0.622187
vt 0.538704 0.622187
vn 0.0000 0.0000 -1.0000
vn 1.0000 -0.0000 0.0000
vn 0.0000 0.0000 1.0000
vn 0.0000 -1.0000 0.0000
vn 0.0000 1.0000 0.0000
vn -1.0000 0.0000 0.0000
vn 0.0000 0.9056 -0.4241
vn 0.0000 0.0980 0.9952
vn 0.0000 0.2903 0.9569
vn 0.0000 0.2903 -0.9569
vn 0.0000 0.0980 -0.9952
vn 0.0000 -0.0980 -0.9952
vn 0.0000 -0.2903 -0.9569
vn 0.0000 -0.4714 -0.8819
vn 0.0000 -0.6344 -0.7730
vn 0.0000 -0.7730 -0.6344
vn 0.0000 -0.8819 -0.4714
vn 0.0000 -0.9569 -0.2903
vn 0.0000 -0.9952 -0.0980
vn 0.0000 -0.9952 0.0980
vn 0.0000 -0.9569 0.2903
vn 0.0000 -0.8819 0.4714
vn 0.0000 -0.7730 0.6344
vn 0.0000 -0.6344 0.7730
vn 0.0000 -0.4714 0.8819
vn 0.0000 -0.2903 0.9569
vn 0.0000 -0.0980 0.9952
vn 0.4457 0.7927 0.4159
vn 0.4457 -0.7927 0.4159
vn -0.8087 0.0000 0.5882
vn 0.0000 -0.8421 0.5392
vn 0.0000 0.8421 0.5392
usemtl Material.001
s off
f 3/1/1 38/2/1 39/3/1 6/4/1
f 146/5/2 147/6/2 6/7/2 39/8/2 40/9/2 15/10/2 9/11/2 135/12/2 136/13/2 134/14/2 137/15/2 140/16/2 138/17/2 149/18/2 139/19/2 148/20/2 141/21/2 143/22/2 142/23/2 129/24/2 130/25/2 133/26/2 131/27/2 132/28/2 145/29/2 144/30/2
f 86/31/2 16/32/2 5/33/2 4/34/2 91/35/2 92/36/2 90/37/2 93/38/2 85/39/2 87/40/2
f 4/41/3 5/42/3 2/43/3 1/44/3
f 4/45/4 1/46/4 96/47/4 91/48/4
f 16/49/5 13/50/5 2/51/5 5/52/5
f 156/53/6 7/54/6 14/55/6 37/56/6 38/57/6 3/58/6 168/59/6 167/60/6 165/61/6 166/62/6 153/63/6 152/64/6 154/65/6 151/66/6 150/67/6 163/68/6 164/69/6 162/70/6 169/71/6 160/72/6 170/73/6 159/74/6 161/75/6 158/76/6 155/77/6 157/78/6
f 9/79/4 7/80/4 156/81/4 135/82/4
f 168/83/4 3/84/4 6/85/4 147/86/4
f 13/87/6 14/55/6 7/54/6 111/88/6 110/89/6 109/90/6 112/91/6 114/92/6 107/93/6 108/94/6 103/95/6 102/96/6 104/97/6 101/98/6 105/99/6 99/100/6 98/101/6 95/102/6 89/103/6
f 117/104/6 96/105/6 1/106/6 2/107/6 13/87/6 89/103/6 88/108/6 119/109/6 118/110/6 116/111/6
f 8/112/5 12/113/5 33/114/5 36/115/5
f 111/116/4 7/80/4 9/79/4 120/117/4
f 9/11/2 15/10/2 16/32/2 86/31/2 94/118/2 97/119/2 100/120/2 106/121/2 113/122/2 115/123/2 121/124/2 122/125/2 123/126/2 124/127/2 126/128/2 125/129/2 127/130/2 128/131/2 120/132/2
f 21/133/5 22/134/5 14/135/5 13/50/5
f 22/134/5 23/136/5 15/137/5 14/135/5
f 23/136/5 24/138/5 16/49/5 15/137/5
f 24/138/5 21/133/5 13/50/5 16/49/5
f 27/139/5 26/140/5 25/141/5 28/142/5
f 11/143/5 10/144/5 29/145/5 32/146/5
f 17/147/4 18/148/4 35/149/4 34/150/4
f 19/151/4 20/152/4 31/153/4 30/154/4
f 12/155/6 8/156/6 22/157/6 21/158/6
f 8/159/1 10/160/1 23/161/1 22/162/1
f 10/163/2 11/164/2 24/165/2 23/166/2
f 11/167/3 12/168/3 21/169/3 24/170/3
f 18/171/6 17/172/6 25/173/6 26/174/6
f 19/175/1 18/176/1 26/177/1 27/178/1
f 20/179/2 19/180/2 27/181/2 28/182/2
f 17/183/3 20/184/3 28/185/3 25/186/3
f 20/152/4 17/147/4 34/150/4 31/153/4
f 18/148/4 19/151/4 30/154/4 35/149/4
f 12/113/5 11/143/5 32/146/5 33/114/5
f 37/187/7 40/188/7 39/189/7 38/190/7
f 40/188/5 37/187/5 14/135/5 15/137/5
f 109/191/8 110/192/8 128/193/8 127/194/8
f 110/192/9 111/195/9 120/196/9 128/197/9
f 96/198/10 117/199/10 92/200/10 91/201/10
f 116/202/11 90/203/11 92/200/11 117/199/11
f 118/204/12 93/205/12 90/203/12 116/202/12
f 119/206/13 85/207/13 93/205/13 118/204/13
f 88/208/14 87/209/14 85/207/14 119/206/14
f 86/210/15 87/209/15 88/208/15 89/211/15 95/212/15 94/213/15
f 98/214/16 97/215/16 94/213/16 95/212/16
f 99/216/17 100/217/17 97/215/17 98/214/17
f 100/217/18 99/216/18 105/218/18 106/219/18
f 101/220/19 113/221/19 106/219/19 105/218/19
f 104/222/20 115/223/20 113/221/20 101/220/20
f 102/224/21 121/225/21 115/223/21 104/222/21
f 103/226/22 122/227/22 121/225/22 102/224/22
f 108/228/23 123/229/23 122/227/23 103/226/23
f 108/228/24 107/230/24 124/231/24 123/229/24
f 107/230/25 114/232/25 126/233/25 124/231/25
f 114/232/26 112/234/26 125/235/26 126/233/26
f 112/234/27 109/236/27 127/237/27 125/235/27
f 146/238/8 144/239/8 165/240/8 167/241/8
f 147/242/9 146/238/9 167/241/9 168/243/9
f 157/244/10 136/245/10 135/246/10 156/247/10
f 155/248/11 134/249/11 136/245/11 157/244/11
f 158/250/12 137/251/12 134/249/12 155/248/12
f 161/252/13 140/253/13 137/254/13 158/250/13
f 159/255/14 138/256/14 140/253/14 161/252/14
f 138/256/15 159/255/15 170/257/15 149/258/15
f 149/258/16 170/257/16 160/259/16 139/260/16
f 169/261/17 148/262/17 139/260/17 160/259/17
f 162/263/18 141/264/18 148/262/18 169/261/18
f 164/265/19 143/266/19 141/264/19 162/263/19
f 163/267/20 142/268/20 143/266/20 164/265/20
f 142/268/21 163/267/21 150/269/21 129/270/21
f 151/271/22 130/272/22 129/270/22 150/269/22
f 154/273/23 133/274/23 130/272/23 151/271/23
f 131/275/24 133/274/24 154/273/24 152/276/24
f 132/277/25 131/275/25 152/276/25 153/278/25
f 166/279/26 145/280/26 132/277/26 153/278/26
f 144/281/27 145/280/27 166/279/27 165/282/27
usemtl Material.004
f 49/283/6 50/284/6 44/285/6 43/286/6
f 43/287/1 44/288/1 45/289/1 46/290/1
f 47/291/4 42/292/4 54/293/4 56/294/4
f 49/295/4 43/296/4 46/297/4 51/298/4
f 44/299/5 50/300/5 52/301/5 45/302/5
f 52/303/2 51/304/2 46/305/2 45/306/2
f 41/307/3 42/308/3 50/309/3 49/310/3
f 48/311/3 41/307/3 49/310/3 51/312/3
f 42/308/3 47/313/3 52/314/3 50/309/3
f 47/313/3 48/311/3 51/312/3 52/314/3
f 54/315/3 53/316/3 55/317/3 56/318/3
f 48/319/6 47/320/6 56/321/6 55/322/6
f 41/323/5 48/324/5 55/325/5 53/326/5
f 42/327/2 41/328/2 53/329/2 54/330/2
f 61/331/2 63/332/2 64/333/2 62/334/2
f 63/335/1 67/336/1 68/337/1 64/338/1
f 67/339/6 65/340/6 66/341/6 68/342/6
f 65/343/3 61/344/3 62/345/3 66/346/3
f 63/347/4 61/348/4 65/349/4 67/350/4
f 64/333/2 70/351/2 69/352/2 62/334/2
f 71/353/5 72/354/5 69/355/5 70/356/5
f 62/345/3 69/357/3 72/358/3 66/346/3
f 68/337/1 71/359/1 70/360/1 64/338/1
f 72/358/3 76/361/3 74/362/3 66/346/3
f 76/361/3 80/363/3 78/364/3 74/362/3
f 71/353/28 81/365/28 76/366/28 72/354/28
f 66/367/29 74/368/29 82/369/29 68/370/29
f 68/337/1 82/371/1 81/372/1 71/359/1
f 78/373/30 80/374/30 83/375/30 84/376/30
f 74/368/31 78/377/31 84/378/31 82/369/31
f 77/379/5 60/380/5 58/381/5 73/382/5
f 81/365/32 83/383/32 80/384/32 76/366/32
f 75/385/1 81/372/1 82/371/1 73/386/1
f 77/387/1 84/388/1 83/389/1 79/390/1
f 73/386/1 82/371/1 84/388/1 77/387/1
f 79/390/1 83/389/1 81/372/1 75/385/1
f 73/391/6 58/392/6 57/393/6 75/394/6
f 75/395/4 57/396/4 59/397/4 79/398/4
f 79/399/2 59/400/2 60/401/2 77/402/2
